PathFileType	4	(x/y/z)	S04_M20_T12.trc
DataRate	CameraRate	NumFrames	NumMarkers	Units	OrigDataRate	OrigDataStartFrame	OrigNumFrames
240	240	4	51	mm	240	201	535
Frame#	Time	Sternum			R.Acromium			L.Acromium			Top.Head			R.ASIS			L.ASIS			R.PSIS			L.PSIS			R.Great.Tro			L.Great.Tro			R.Iliac.Crest			L.Iliac.Crest			V.Sacral			R.Thigh.Upper.Post			R.Thigh.Lower.Ant			R.Thigh.Lower.Post			R.Thigh.Upper.Ant			R.Knee.Lat			R.Knee.Med			R.Shank.Upper.Post			R.Shank.Lower.Ant			R.Shank.Lower.Post			R.Shank.Upper.Ant			R.Ankle.Lat			R.Ankle.Med			R.Heel.Upper			R.Heel.Med			R.Heel.Lat			R.Toe.Lat			R.Toe.Med			R.Toe.Tip			L.Thigh.Upper.Post			L.Thigh.Lower.Ant			L.Thigh.Lower.Post			L.Thigh.Upper.Ant			L.Knee.Lat			L.Knee.Med			L.Shank.Upper.Post			L.Shank.Lower.Ant			L.Shank.Lower.Post			L.Shank.Upper.Ant			L.Ankle.Lat			L.Ankle.Med			L.Heel.Upper			L.Heel.Med			L.Heel.Lat			L.Toe.Lat			L.Toe.Med			L.Toe.Tip			Cervical.Spine			Back			
		X1	Y1	Z1	X2	Y2	Z2	X3	Y3	Z3	X4	Y4	Z4	X5	Y5	Z5	X6	Y6	Z6	X7	Y7	Z7	X8	Y8	Z8	X9	Y9	Z9	X10	Y10	Z10	X11	Y11	Z11	X12	Y12	Z12	X13	Y13	Z13	X14	Y14	Z14	X15	Y15	Z15	X16	Y16	Z16	X17	Y17	Z17	X18	Y18	Z18	X19	Y19	Z19	X20	Y20	Z20	X21	Y21	Z21	X22	Y22	Z22	X23	Y23	Z23	X24	Y24	Z24	X25	Y25	Z25	X26	Y26	Z26	X27	Y27	Z27	X28	Y28	Z28	X29	Y29	Z29	X30	Y30	Z30	X31	Y31	Z31	X32	Y32	Z32	X33	Y33	Z33	X34	Y34	Z34	X35	Y35	Z35	X36	Y36	Z36	X37	Y37	Z37	X38	Y38	Z38	X39	Y39	Z39	X40	Y40	Z40	X41	Y41	Z41	X42	Y42	Z42	X43	Y43	Z43	X44	Y44	Z44	X45	Y45	Z45	X46	Y46	Z46	X47	Y47	Z47	X48	Y48	Z48	X49	Y49	Z49	X50	Y50	Z50	X51	Y51	Z51	

201	0.83333	241.53	1235.4	248.23	130.06	1455.8	445.65	78.07	1447.6	97.678	111.42	1787.8	262.36	252.5	958	361.44	185.2	960.85	120.26	21.667	994.55	326.64	9.6116	998.31	247.03	192.67	886.92	452.41	40.356	893.01	94.975	173.3	1039.8	433.38	85.656	1049.8	100.63	-5.7433	955.05	292.03	277.51	641.34	427.94	371.06	596.96	374.74	310.55	559.11	405.61	339.37	699.88	402.49	359.62	511.01	389.8	312.69	492.47	264.31	352.59	272.52	390.55	432.07	217.88	338.37	370.72	206.3	374.58	412.88	284.17	363.64	410.65	99.912	350.17	420.78	120.6	259.29	356.82	64.139	292.04	370.09	35.73	261.8	365.81	32.292	326.4	532.62	68.023	369.33	560.95	84.256	254.04	615.83	123.2	300.31	-41.511	683.71	111.37	3.147	567.43	90.325	-58.742	595.9	116.8	15.1	657.05	82.121	-60.447	495.05	106.8	-32.254	467.19	227.64	-235.79	403.34	129.63	-235.71	292.25	125.87	-278.1	338.98	140.08	-193.51	355.7	115.65	-344.74	179.44	156.32	-326.2	190.31	246.16	-416.15	211.75	208.47	-424.69	192.33	245.18	-434.51	187.32	183.77	-314.85	55.285	142.19	-275.9	48.381	254.76	-233.17	37.599	206.52	53.617	1504.2	283.4	-21.605	1245.3	267.27
202	0.8375	247.9	1236.1	248.87	135.8	1456.2	446.33	84.268	1448.1	98.284	117.18	1788.3	263.1	258.75	958.78	362.12	191.93	961.03	120.89	27.86	995.29	326.65	15.997	998.72	246.98	198.7	887.99	452.92	47.202	892.72	95.303	179.38	1040.4	433.79	92.774	1050.2	100.81	0.54035	955.65	292.11	283.57	642.16	428.31	376.96	597.63	374.97	316.46	559.88	405.96	345.47	700.6	402.79	365.3	511.44	389.97	318.18	493.29	264.65	356.23	272.93	391	434.9	217.45	338.47	373.6	206.51	375.02	416.49	283.97	363.72	412.14	99.686	350.46	422.35	120.36	259.57	357.65	64.74	292.37	370.48	36.239	261.98	366.22	32.632	326.58	533.78	66.049	369.18	562.04	82.196	253.88	617.65	120.21	300.11	-33.837	682.71	111.32	11.41	566.78	89.608	-50.531	594.79	116.44	22.855	656.49	81.814	-51.855	494.28	105.95	-23.174	465.8	226.55	-227.91	404.74	129.27	-229.32	293.7	125.18	-270.99	340.94	139.73	-186.32	356.59	114.98	-339.8	182.22	155.66	-320.5	192.76	245.44	-409.72	216.67	208	-418.65	197.72	244.87	-428.94	192.69	183.54	-313.52	56.912	142.2	-274.11	49.598	254.52	-232.36	37.216	206.25	59.521	1504.6	284	-15.237	1245.6	267.51
203	0.84167	254.22	1236.8	249.53	141.5	1456.7	446.99	90.486	1448.7	98.864	122.93	1788.9	263.84	264.94	959.61	362.82	198.59	961.27	121.53	33.989	996.07	326.66	22.318	999.17	246.93	204.65	889.08	453.42	54.01	892.48	95.631	185.37	1041	434.19	99.818	1050.6	101	6.7622	956.28	292.19	289.53	642.97	428.71	382.76	598.28	375.23	322.26	560.64	406.32	351.49	701.3	403.12	370.87	511.86	390.17	323.61	494.13	265	359.79	273.35	391.48	437.63	217.05	338.59	376.38	206.74	375.48	419.99	283.78	363.83	413.56	99.491	350.76	423.84	120.17	259.87	358.42	65.31	292.7	370.86	36.747	262.17	366.62	32.957	326.76	534.85	64.171	369.05	563.05	80.255	253.74	619.35	117.36	299.94	-26.091	681.68	111.25	19.806	566.14	88.887	-42.204	593.65	116.06	30.697	655.94	81.502	-43.074	493.48	105.09	-13.907	464.4	225.45	-219.78	406.15	128.91	-222.72	295.19	124.47	-263.64	342.91	139.39	-178.91	357.5	114.29	-334.65	185.09	154.97	-314.59	195.26	244.7	-403.02	221.66	207.5	-412.33	203.2	244.54	-423.09	198.16	183.3	-312.04	58.704	142.19	-272.13	50.968	254.24	-231.4	36.83	205.92	65.404	1505.1	284.58	-8.924	1246	267.71
204	0.84583	260.48	1237.5	250.18	147.17	1457.3	447.64	96.722	1449.4	99.418	128.65	1789.5	264.59	271.06	960.47	363.53	205.18	961.58	122.2	40.058	996.89	326.68	28.573	999.67	246.89	210.53	890.18	453.91	60.772	892.29	95.964	191.29	1041.7	434.59	106.77	1051.1	101.22	12.922	956.96	292.27	295.38	643.76	429.11	388.44	598.91	375.51	327.93	561.37	406.69	357.42	701.97	403.48	376.32	512.27	390.37	328.97	494.97	265.34	363.25	273.78	391.98	440.26	216.67	338.72	379.08	206.99	375.95	423.4	283.61	363.95	414.9	99.322	351.06	425.24	120.02	260.19	359.14	65.848	293.04	371.21	37.246	262.36	366.99	33.267	326.95	535.86	62.386	368.94	563.98	78.422	253.61	620.92	114.63	299.76	-18.274	680.63	111.16	28.328	565.49	88.169	-33.766	592.48	115.67	38.622	655.39	81.188	-34.107	492.67	104.23	-4.4606	462.99	224.36	-211.42	407.56	128.56	-215.9	296.71	123.77	-256.07	344.92	139.05	-171.28	358.42	113.6	-329.27	188.05	154.27	-308.46	197.83	243.95	-396.03	226.71	206.98	-405.72	208.74	244.17	-416.95	203.72	183.02	-310.36	60.668	142.15	-269.92	52.491	253.91	-230.29	36.45	205.52	71.263	1505.6	285.14	-2.6717	1246.4	267.89
